# WaveFront *.obj file (generated by Autodesk ATF)

mtllib 95e62229-a1e7-4c0c-abcb-f1f3d3a4b0fb.mtl

g Body1

v 0.000000 1.000000 5.000000
v 0.230616 0.973045 5.000000
v 0.448799 0.893633 5.000000
v 0.642788 0.766044 5.000000
v 0.802123 0.597159 5.000000
v 0.918216 0.396080 5.000000
v 0.984808 0.173648 5.000000
v 0.998308 -0.058145 5.000000
v 0.957990 -0.286803 5.000000
v 0.866025 -0.500000 5.000000
v 0.727374 -0.686242 5.000000
v 0.549509 -0.835488 5.000000
v 0.342020 -0.939693 5.000000
v 0.116093 -0.993238 5.000000
v -0.116093 -0.993238 5.000000
v -0.342020 -0.939693 5.000000
v -0.549509 -0.835488 5.000000
v -0.727374 -0.686242 5.000000
v -0.866025 -0.500000 5.000000
v -0.957990 -0.286803 5.000000
v -0.998308 -0.058145 5.000000
v -0.984808 0.173648 5.000000
v -0.918216 0.396080 5.000000
v -0.802123 0.597159 5.000000
v -0.642788 0.766044 5.000000
v -0.448799 0.893633 5.000000
v -0.230616 0.973045 5.000000
v 0.500000 0.000000 5.000000
v 0.482963 0.129410 5.000000
v 0.433013 0.250000 5.000000
v 0.353553 0.353553 5.000000
v 0.250000 0.433013 5.000000
v 0.129410 0.482963 5.000000
v 0.000000 0.500000 5.000000
v -0.129410 0.482963 5.000000
v -0.250000 0.433013 5.000000
v -0.353553 0.353553 5.000000
v -0.433013 0.250000 5.000000
v -0.482963 0.129410 5.000000
v -0.500000 0.000000 5.000000
v -0.482963 -0.129410 5.000000
v -0.433013 -0.250000 5.000000
v -0.353553 -0.353553 5.000000
v -0.250000 -0.433013 5.000000
v -0.129410 -0.482963 5.000000
v -0.000000 -0.500000 5.000000
v 0.129410 -0.482963 5.000000
v 0.250000 -0.433013 5.000000
v 0.353553 -0.353553 5.000000
v 0.433013 -0.250000 5.000000
v 0.482963 -0.129410 5.000000
v 0.000000 0.000000 6.500000
v 0.500000 0.000000 0.000000
v 0.482963 0.129410 0.000000
v 0.433013 0.250000 0.000000
v 0.353553 0.353553 0.000000
v 0.250000 0.433013 0.000000
v 0.129410 0.482963 0.000000
v -0.000000 0.500000 0.000000
v -0.129410 0.482963 0.000000
v -0.250000 0.433013 0.000000
v -0.353553 0.353553 0.000000
v -0.433013 0.250000 0.000000
v -0.482963 0.129410 0.000000
v -0.500000 -0.000000 0.000000
v -0.482963 -0.129410 0.000000
v -0.433013 -0.250000 0.000000
v -0.353553 -0.353553 0.000000
v -0.250000 -0.433013 0.000000
v -0.129410 -0.482963 0.000000
v 0.000000 -0.500000 0.000000
v 0.129410 -0.482963 0.000000
v 0.250000 -0.433013 0.000000
v 0.353553 -0.353553 0.000000
v 0.433013 -0.250000 0.000000
v 0.482963 -0.129410 0.000000
vt 0.023062 0.097304 0.000000
vt 0.000000 0.100000 0.000000
vt -0.000000 0.050000 0.000000
vt -0.023062 0.097304 0.000000
vt -0.012941 0.048296 0.000000
vt -0.044880 0.089363 0.000000
vt -0.025000 0.043301 0.000000
vt -0.064279 0.076604 0.000000
vt -0.035355 0.035355 0.000000
vt -0.080212 0.059716 0.000000
vt -0.043301 0.025000 0.000000
vt -0.091822 0.039608 0.000000
vt -0.048296 0.012941 0.000000
vt -0.098481 0.017365 0.000000
vt -0.050000 0.000000 0.000000
vt -0.099831 -0.005814 0.000000
vt -0.048296 -0.012941 0.000000
vt -0.095799 -0.028680 0.000000
vt -0.043301 -0.025000 0.000000
vt -0.086603 -0.050000 0.000000
vt -0.072737 -0.068624 0.000000
vt -0.035355 -0.035355 0.000000
vt -0.054951 -0.083549 0.000000
vt -0.025000 -0.043301 0.000000
vt -0.034202 -0.093969 0.000000
vt -0.012941 -0.048296 0.000000
vt -0.011609 -0.099324 0.000000
vt 0.000000 -0.050000 0.000000
vt 0.011609 -0.099324 0.000000
vt 0.012941 -0.048296 0.000000
vt 0.034202 -0.093969 0.000000
vt 0.025000 -0.043301 0.000000
vt 0.054951 -0.083549 0.000000
vt 0.035355 -0.035355 0.000000
vt 0.072737 -0.068624 0.000000
vt 0.043301 -0.025000 0.000000
vt 0.086603 -0.050000 0.000000
vt 0.095799 -0.028680 0.000000
vt 0.048296 -0.012941 0.000000
vt 0.099831 -0.005814 0.000000
vt 0.050000 0.000000 0.000000
vt 0.098481 0.017365 0.000000
vt 0.048296 0.012941 0.000000
vt 0.091822 0.039608 0.000000
vt 0.043301 0.025000 0.000000
vt 0.080212 0.059716 0.000000
vt 0.035355 0.035355 0.000000
vt 0.064279 0.076604 0.000000
vt 0.025000 0.043301 0.000000
vt 0.044880 0.089363 0.000000
vt 0.012941 0.048296 0.000000
vt -0.090139 -0.011636 0.000000
vt 0.090139 -0.005818 0.000000
vt -0.090139 0.000000 0.000000
vt -0.090139 -0.034907 0.000000
vt 0.090139 -0.029089 0.000000
vt -0.090139 -0.023271 0.000000
vt -0.090139 -0.058178 0.000000
vt 0.090139 -0.052360 0.000000
vt -0.090139 -0.046542 0.000000
vt -0.090139 -0.081449 0.000000
vt 0.090139 -0.075631 0.000000
vt -0.090139 -0.069813 0.000000
vt -0.090139 -0.104720 0.000000
vt 0.090139 -0.098902 0.000000
vt -0.090139 -0.093084 0.000000
vt -0.090139 -0.127991 0.000000
vt 0.090139 -0.122173 0.000000
vt -0.090139 -0.116355 0.000000
vt -0.090139 -0.151262 0.000000
vt 0.090139 -0.145444 0.000000
vt -0.090139 -0.139626 0.000000
vt -0.090139 0.139626 0.000000
vt 0.090139 0.145444 0.000000
vt -0.090139 0.151262 0.000000
vt -0.090139 0.116355 0.000000
vt 0.090139 0.122173 0.000000
vt -0.090139 0.127991 0.000000
vt -0.090139 0.093084 0.000000
vt 0.090139 0.098902 0.000000
vt -0.090139 0.104720 0.000000
vt -0.090139 0.069813 0.000000
vt 0.090139 0.075631 0.000000
vt -0.090139 0.081449 0.000000
vt -0.090139 0.046542 0.000000
vt 0.090139 0.052360 0.000000
vt -0.090139 0.058178 0.000000
vt -0.090139 0.023271 0.000000
vt 0.090139 0.029089 0.000000
vt -0.090139 0.034907 0.000000
vt 0.090139 0.005818 0.000000
vt -0.090139 0.011636 0.000000
vt 0.090139 0.157080 0.000000
vt -0.090139 0.162897 0.000000
vt 0.090139 -0.133809 0.000000
vt 0.090139 -0.110538 0.000000
vt 0.090139 -0.087266 0.000000
vt 0.090139 -0.063995 0.000000
vt 0.090139 -0.040724 0.000000
vt 0.090139 -0.017453 0.000000
vt 0.090139 0.017453 0.000000
vt 0.090139 0.040724 0.000000
vt 0.090139 0.063995 0.000000
vt 0.090139 0.087266 0.000000
vt 0.090139 0.110538 0.000000
vt 0.090139 0.133809 0.000000
vt 0.250000 0.013090 0.000000
vt -0.250000 0.013090 0.000000
vt 0.250000 0.000000 0.000000
vt -0.250000 0.000000 0.000000
vt 0.250000 -0.013090 0.000000
vt -0.250000 -0.013090 0.000000
vt 0.250000 -0.026180 0.000000
vt -0.250000 -0.026180 0.000000
vt 0.250000 -0.039270 0.000000
vt -0.250000 -0.039270 0.000000
vt 0.250000 -0.052360 0.000000
vt -0.250000 -0.052360 0.000000
vt 0.250000 -0.065450 0.000000
vt -0.250000 -0.065450 0.000000
vt 0.250000 -0.078540 0.000000
vt -0.250000 -0.078540 0.000000
vt 0.250000 -0.091630 0.000000
vt -0.250000 -0.091630 0.000000
vt 0.250000 -0.104720 0.000000
vt -0.250000 -0.104720 0.000000
vt 0.250000 -0.117810 0.000000
vt -0.250000 -0.117810 0.000000
vt 0.250000 -0.130900 0.000000
vt -0.250000 -0.130900 0.000000
vt 0.250000 -0.143990 0.000000
vt -0.250000 -0.143990 0.000000
vt 0.250000 -0.157080 0.000000
vt -0.250000 -0.157080 0.000000
vt 0.250000 0.157080 0.000000
vt -0.250000 0.157080 0.000000
vt 0.250000 0.143990 0.000000
vt -0.250000 0.143990 0.000000
vt 0.250000 0.130900 0.000000
vt -0.250000 0.130900 0.000000
vt 0.250000 0.117810 0.000000
vt -0.250000 0.117810 0.000000
vt 0.250000 0.104720 0.000000
vt -0.250000 0.104720 0.000000
vt 0.250000 0.091630 0.000000
vt -0.250000 0.091630 0.000000
vt 0.250000 0.078540 0.000000
vt -0.250000 0.078540 0.000000
vt 0.250000 0.065450 0.000000
vt -0.250000 0.065450 0.000000
vt 0.250000 0.052360 0.000000
vt -0.250000 0.052360 0.000000
vt 0.250000 0.039270 0.000000
vt -0.250000 0.039270 0.000000
vt 0.250000 0.026180 0.000000
vt -0.250000 0.026180 0.000000
vt -0.048296 -0.012941 0.000000
vt 0.048296 -0.012941 0.000000
vt -0.050000 0.000000 0.000000
vt 0.050000 -0.000000 0.000000
vt -0.048296 0.012941 0.000000
vt 0.048296 0.012941 0.000000
vt -0.043301 0.025000 0.000000
vt 0.043301 0.025000 0.000000
vt -0.035355 0.035355 0.000000
vt 0.035355 0.035355 0.000000
vt -0.025000 0.043301 0.000000
vt 0.025000 0.043301 0.000000
vt -0.012941 0.048296 0.000000
vt 0.012941 0.048296 0.000000
vt 0.000000 0.050000 0.000000
vt 0.043301 -0.025000 0.000000
vt -0.043301 -0.025000 0.000000
vt 0.035355 -0.035355 0.000000
vt -0.035355 -0.035355 0.000000
vt 0.025000 -0.043301 0.000000
vt -0.025000 -0.043301 0.000000
vt 0.012941 -0.048296 0.000000
vt -0.012941 -0.048296 0.000000
vt -0.000000 -0.050000 0.000000
vn 0.000000 0.000000 -0.100000
vn 0.000000 0.000000 -0.100000
vn 0.000000 0.000000 -0.100000
vn 0.000000 0.000000 -0.100000
vn 0.000000 0.000000 -0.100000
vn 0.000000 0.000000 -0.100000
vn 0.000000 0.000000 -0.100000
vn 0.000000 0.000000 -0.100000
vn 0.000000 0.000000 -0.100000
vn 0.000000 0.000000 -0.100000
vn 0.000000 0.000000 -0.100000
vn 0.000000 0.000000 -0.100000
vn 0.000000 0.000000 -0.100000
vn 0.000000 0.000000 -0.100000
vn 0.000000 0.000000 -0.100000
vn 0.000000 0.000000 -0.100000
vn 0.000000 0.000000 -0.100000
vn 0.000000 0.000000 -0.100000
vn 0.000000 0.000000 -0.100000
vn 0.000000 0.000000 -0.100000
vn 0.000000 0.000000 -0.100000
vn 0.000000 0.000000 -0.100000
vn 0.000000 0.000000 -0.100000
vn 0.000000 0.000000 -0.100000
vn 0.000000 0.000000 -0.100000
vn 0.000000 0.000000 -0.100000
vn 0.000000 0.000000 -0.100000
vn 0.000000 0.000000 -0.100000
vn 0.000000 0.000000 -0.100000
vn 0.000000 0.000000 -0.100000
vn 0.000000 0.000000 -0.100000
vn 0.000000 0.000000 -0.100000
vn 0.000000 0.000000 -0.100000
vn 0.000000 0.000000 -0.100000
vn 0.000000 0.000000 -0.100000
vn 0.000000 0.000000 -0.100000
vn 0.000000 0.000000 -0.100000
vn 0.000000 0.000000 -0.100000
vn 0.000000 0.000000 -0.100000
vn 0.000000 0.000000 -0.100000
vn 0.000000 0.000000 -0.100000
vn 0.000000 0.000000 -0.100000
vn 0.000000 0.000000 -0.100000
vn 0.000000 0.000000 -0.100000
vn 0.000000 0.000000 -0.100000
vn 0.000000 0.000000 -0.100000
vn 0.000000 0.000000 -0.100000
vn 0.000000 0.000000 -0.100000
vn 0.000000 0.000000 -0.100000
vn 0.000000 0.000000 -0.100000
vn 0.000000 0.000000 -0.100000
vn -0.019188 0.080962 0.055470
vn -0.009660 0.082642 0.055470
vn 0.000000 0.083205 0.055470
vn -0.053483 0.063739 0.055470
vn -0.045722 0.069517 0.055470
vn -0.037342 0.074355 0.055470
vn -0.076400 0.032956 0.055470
vn -0.072058 0.041603 0.055470
vn -0.066741 0.049687 0.055470
vn -0.083064 -0.004838 0.055470
vn -0.083064 0.004838 0.055470
vn -0.081941 0.014448 0.055470
vn -0.072058 -0.041603 0.055470
vn -0.076400 -0.032956 0.055470
vn -0.079710 -0.023863 0.055470
vn -0.045722 -0.069517 0.055470
vn -0.053483 -0.063739 0.055470
vn -0.060521 -0.057099 0.055470
vn -0.009660 -0.082642 0.055470
vn -0.019188 -0.080962 0.055470
vn -0.028458 -0.078187 0.055470
vn 0.028458 -0.078187 0.055470
vn 0.019188 -0.080962 0.055470
vn 0.009660 -0.082642 0.055470
vn 0.060521 -0.057099 0.055470
vn 0.053483 -0.063739 0.055470
vn 0.045722 -0.069517 0.055470
vn 0.079710 -0.023863 0.055470
vn 0.076400 -0.032956 0.055470
vn 0.072058 -0.041603 0.055470
vn 0.081941 0.014448 0.055470
vn 0.083064 0.004838 0.055470
vn 0.083064 -0.004838 0.055470
vn 0.066741 0.049687 0.055470
vn 0.072058 0.041603 0.055470
vn 0.076400 0.032956 0.055470
vn 0.037342 0.074355 0.055470
vn 0.045722 0.069517 0.055470
vn 0.053483 0.063739 0.055470
vn 0.009660 0.082642 0.055470
vn 0.019188 0.080962 0.055470
vn 0.000000 -0.083205 0.055470
vn -0.037342 -0.074355 0.055470
vn -0.066741 -0.049687 0.055470
vn -0.081941 -0.014448 0.055470
vn -0.079710 0.023863 0.055470
vn -0.060521 0.057099 0.055470
vn -0.028458 0.078187 0.055470
vn 0.028458 0.078187 0.055470
vn 0.060521 0.057099 0.055470
vn 0.079710 0.023863 0.055470
vn 0.081941 -0.014448 0.055470
vn 0.066741 -0.049687 0.055470
vn 0.037342 -0.074355 0.055470
vn 0.096593 0.025882 0.000000
vn 0.096593 0.025882 0.000000
vn 0.100000 0.000000 0.000000
vn 0.100000 0.000000 0.000000
vn 0.096593 -0.025882 0.000000
vn 0.096593 -0.025882 0.000000
vn 0.086603 -0.050000 0.000000
vn 0.086603 -0.050000 0.000000
vn 0.070711 -0.070711 0.000000
vn 0.070711 -0.070711 0.000000
vn 0.050000 -0.086603 0.000000
vn 0.050000 -0.086603 0.000000
vn 0.025882 -0.096593 0.000000
vn 0.025882 -0.096593 0.000000
vn 0.000000 -0.100000 0.000000
vn -0.000000 -0.100000 0.000000
vn -0.025882 -0.096593 0.000000
vn -0.025882 -0.096593 0.000000
vn -0.050000 -0.086603 0.000000
vn -0.050000 -0.086603 0.000000
vn -0.070711 -0.070711 0.000000
vn -0.070711 -0.070711 0.000000
vn -0.086603 -0.050000 0.000000
vn -0.086603 -0.050000 0.000000
vn -0.096593 -0.025882 0.000000
vn -0.096593 -0.025882 0.000000
vn -0.100000 -0.000000 0.000000
vn -0.100000 -0.000000 0.000000
vn -0.096593 0.025882 -0.000000
vn -0.096593 0.025882 -0.000000
vn -0.086603 0.050000 -0.000000
vn -0.086603 0.050000 -0.000000
vn -0.070711 0.070711 -0.000000
vn -0.070711 0.070711 -0.000000
vn -0.050000 0.086603 -0.000000
vn -0.050000 0.086603 -0.000000
vn -0.025882 0.096593 -0.000000
vn -0.025882 0.096593 -0.000000
vn -0.000000 0.100000 -0.000000
vn 0.000000 0.100000 0.000000
vn 0.025882 0.096593 0.000000
vn 0.025882 0.096593 0.000000
vn 0.050000 0.086603 0.000000
vn 0.050000 0.086603 0.000000
vn 0.070711 0.070711 0.000000
vn 0.070711 0.070711 0.000000
vn 0.086603 0.050000 0.000000
vn 0.086603 0.050000 0.000000
vn 0.000000 0.000000 -0.100000
vn 0.000000 0.000000 -0.100000
vn 0.000000 0.000000 -0.100000
vn 0.000000 0.000000 -0.100000
vn 0.000000 0.000000 -0.100000
vn 0.000000 0.000000 -0.100000
vn 0.000000 0.000000 -0.100000
vn 0.000000 0.000000 -0.100000
vn 0.000000 0.000000 -0.100000
vn 0.000000 0.000000 -0.100000
vn 0.000000 0.000000 -0.100000
vn 0.000000 0.000000 -0.100000
vn 0.000000 0.000000 -0.100000
vn 0.000000 0.000000 -0.100000
vn 0.000000 0.000000 -0.100000
vn 0.000000 0.000000 -0.100000
vn 0.000000 0.000000 -0.100000
vn 0.000000 0.000000 -0.100000
vn 0.000000 0.000000 -0.100000
vn 0.000000 0.000000 -0.100000
vn 0.000000 0.000000 -0.100000
vn 0.000000 0.000000 -0.100000
vn 0.000000 0.000000 -0.100000
vn 0.000000 0.000000 -0.100000
usemtl Steel_-_Satin
f 27/1/1 1/2/2 34/3/3
f 34/3/3 1/2/2 2/4/4
f 34/3/3 2/4/4 33/5/5
f 33/5/5 2/4/4 3/6/6
f 33/5/5 3/6/6 32/7/7
f 32/7/7 3/6/6 4/8/8
f 32/7/7 4/8/8 31/9/9
f 31/9/9 4/8/8 5/10/10
f 31/9/9 5/10/10 30/11/11
f 30/11/11 5/10/10 6/12/12
f 30/11/11 6/12/12 29/13/13
f 29/13/13 6/12/12 7/14/14
f 29/13/13 7/14/14 28/15/15
f 28/15/15 7/14/14 8/16/16
f 28/15/15 8/16/16 51/17/17
f 51/17/17 8/16/16 9/18/18
f 51/17/17 9/18/18 50/19/19
f 50/19/19 9/18/18 10/20/20
f 50/19/19 10/20/20 11/21/21
f 50/19/19 11/21/21 49/22/22
f 49/22/22 11/21/21 12/23/23
f 49/22/22 12/23/23 48/24/24
f 48/24/24 12/23/23 13/25/25
f 48/24/24 13/25/25 47/26/26
f 47/26/26 13/25/25 14/27/27
f 47/26/26 14/27/27 46/28/28
f 46/28/28 14/27/27 15/29/29
f 46/28/28 15/29/29 45/30/30
f 45/30/30 15/29/29 16/31/31
f 45/30/30 16/31/31 44/32/32
f 44/32/32 16/31/31 17/33/33
f 44/32/32 17/33/33 43/34/34
f 43/34/34 17/33/33 18/35/35
f 43/34/34 18/35/35 42/36/36
f 42/36/36 18/35/35 19/37/37
f 42/36/36 19/37/37 20/38/38
f 42/36/36 20/38/38 41/39/39
f 41/39/39 20/38/38 21/40/40
f 41/39/39 21/40/40 40/41/41
f 40/41/41 21/40/40 22/42/42
f 40/41/41 22/42/42 39/43/43
f 39/43/43 22/42/42 23/44/44
f 39/43/43 23/44/44 38/45/45
f 38/45/45 23/44/44 24/46/46
f 38/45/45 24/46/46 37/47/47
f 37/47/47 24/46/46 25/48/48
f 37/47/47 25/48/48 36/49/49
f 36/49/49 25/48/48 26/50/50
f 36/49/49 26/50/50 35/51/51
f 35/51/51 26/50/50 27/1/1
f 35/51/51 27/1/1 34/3/3
f 27/52/52 52/53/53 1/54/54
f 25/55/55 52/56/56 26/57/57
f 23/58/58 52/59/59 24/60/60
f 21/61/61 52/62/62 22/63/63
f 19/64/64 52/65/65 20/66/66
f 17/67/67 52/68/68 18/69/69
f 15/70/70 52/71/71 16/72/72
f 13/73/73 52/74/74 14/75/75
f 11/76/76 52/77/77 12/78/78
f 9/79/79 52/80/80 10/81/81
f 7/82/82 52/83/83 8/84/84
f 5/85/85 52/86/86 6/87/87
f 3/88/88 52/89/89 4/90/90
f 1/54/54 52/91/91 2/92/92
f 14/75/75 52/93/93 15/94/70
f 16/72/72 52/95/94 17/67/67
f 18/69/69 52/96/95 19/64/64
f 20/66/66 52/97/96 21/61/61
f 22/63/63 52/98/97 23/58/58
f 24/60/60 52/99/98 25/55/55
f 26/57/57 52/100/99 27/52/52
f 2/92/92 52/101/100 3/88/88
f 4/90/90 52/102/101 5/85/85
f 6/87/87 52/103/102 7/82/82
f 8/84/84 52/104/103 9/79/79
f 10/81/81 52/105/104 11/76/76
f 12/78/78 52/106/105 13/73/73
f 54/107/106 29/108/107 53/109/108
f 53/109/108 29/108/107 28/110/109
f 53/109/108 28/110/109 76/111/110
f 76/111/110 28/110/109 51/112/111
f 76/111/110 51/112/111 75/113/112
f 75/113/112 51/112/111 50/114/113
f 75/113/112 50/114/113 74/115/114
f 74/115/114 50/114/113 49/116/115
f 74/115/114 49/116/115 73/117/116
f 73/117/116 49/116/115 48/118/117
f 73/117/116 48/118/117 72/119/118
f 72/119/118 48/118/117 47/120/119
f 72/119/118 47/120/119 71/121/120
f 71/121/120 47/120/119 46/122/121
f 71/121/120 46/122/121 70/123/122
f 70/123/122 46/122/121 45/124/123
f 70/123/122 45/124/123 69/125/124
f 69/125/124 45/124/123 44/126/125
f 69/125/124 44/126/125 68/127/126
f 68/127/126 44/126/125 43/128/127
f 68/127/126 43/128/127 67/129/128
f 67/129/128 43/128/127 42/130/129
f 67/129/128 42/130/129 66/131/130
f 66/131/130 42/130/129 41/132/131
f 66/131/130 41/132/131 65/133/132
f 65/133/132 41/132/131 40/134/133
f 65/135/132 40/136/133 64/137/134
f 64/137/134 40/136/133 39/138/135
f 64/137/134 39/138/135 63/139/136
f 63/139/136 39/138/135 38/140/137
f 63/139/136 38/140/137 62/141/138
f 62/141/138 38/140/137 37/142/139
f 62/141/138 37/142/139 61/143/140
f 61/143/140 37/142/139 36/144/141
f 61/143/140 36/144/141 60/145/142
f 60/145/142 36/144/141 35/146/143
f 60/145/142 35/146/143 59/147/144
f 59/147/144 35/146/143 34/148/145
f 59/147/144 34/148/145 58/149/146
f 58/149/146 34/148/145 33/150/147
f 58/149/146 33/150/147 57/151/148
f 57/151/148 33/150/147 32/152/149
f 57/151/148 32/152/149 56/153/150
f 56/153/150 32/152/149 31/154/151
f 56/153/150 31/154/151 55/155/152
f 55/155/152 31/154/151 30/156/153
f 55/155/152 30/156/153 54/107/106
f 54/107/106 30/156/153 29/108/107
f 76/157/154 66/158/155 53/159/156
f 53/159/156 66/158/155 65/160/157
f 53/159/156 65/160/157 54/161/158
f 54/161/158 65/160/157 64/162/159
f 54/161/158 64/162/159 55/163/160
f 55/163/160 64/162/159 63/164/161
f 55/163/160 63/164/161 56/165/162
f 56/165/162 63/164/161 62/166/163
f 56/165/162 62/166/163 57/167/164
f 57/167/164 62/166/163 61/168/165
f 57/167/164 61/168/165 58/169/166
f 58/169/166 61/168/165 60/170/167
f 58/169/166 60/170/167 59/171/168
f 66/158/155 76/157/154 67/172/169
f 67/172/169 76/157/154 75/173/170
f 67/172/169 75/173/170 68/174/171
f 68/174/171 75/173/170 74/175/172
f 68/174/171 74/175/172 69/176/173
f 69/176/173 74/175/172 73/177/174
f 69/176/173 73/177/174 70/178/175
f 70/178/175 73/177/174 72/179/176
f 70/178/175 72/179/176 71/180/177
# 76 vertices
# 180 texture params
# 177 normals
# 148 facets

# 1 groups
